<svg width="284" height="56" viewBox="0 0 284 56" fill="none" xmlns="http://www.w3.org/2000/svg">
<path d="M67.6146 35.9536C67.1291 35.7614 66.6274 35.5533 66.1096 35.3291C65.6241 35.1049 65.1548 34.7686 64.7016 34.3203C64.2809 33.904 63.9087 33.3115 63.585 32.5429C63.2613 31.6142 63.0348 30.7015 62.9053 29.8048C62.8082 28.9081 62.7759 27.8673 62.8082 26.6824C62.8082 25.0171 62.9215 23.576 63.1481 22.359C63.407 21.1101 63.7954 19.8451 64.3133 18.5641C64.378 18.468 64.4913 18.1958 64.6531 17.7475C64.8473 17.2671 65.0577 16.7547 65.2842 16.2103C65.5432 15.6658 65.7374 15.2495 65.8668 14.9613C66.1258 14.4169 66.5142 13.6963 67.032 12.7996C67.5822 11.8709 68.1648 10.9742 68.7798 10.1095C69.7184 8.73246 70.4952 7.64362 71.1102 6.843C71.7251 6.04238 72.3077 5.36986 72.858 4.82543C73.4082 4.28101 74.0231 3.76861 74.7028 3.28824C75.4149 2.77584 76.3211 2.15136 77.4216 1.41479C78.1337 0.902393 78.9105 0.630183 79.752 0.598158C80.6259 0.566132 81.435 0.75828 82.1794 1.1746C82.9239 1.5589 83.4741 2.13535 83.8301 2.90394C84.1862 3.57647 84.3642 4.3931 84.3642 5.35384C84.3642 6.28256 84.2185 7.27533 83.9272 8.33215C83.6359 9.35695 83.2314 10.3337 82.7135 11.2624C82.1956 12.1911 81.5969 12.9597 80.9172 13.5682C80.4964 13.9525 80.108 14.0966 79.752 14.0005C79.4283 13.9045 79.0399 13.6483 78.5868 13.2319C78.2955 12.6875 78.1337 12.3673 78.1013 12.2712C78.1013 12.1751 78.166 12.1111 78.2955 12.0791C78.4897 11.8549 78.7486 11.4706 79.0723 10.9262C79.3959 10.3817 79.7196 9.80529 80.0433 9.19682C80.3669 8.55632 80.5935 8.04393 80.723 7.65963C80.9819 6.31459 81.1599 5.36986 81.257 4.82543C81.3541 4.24899 81.257 3.81665 80.9657 3.52843C80.8362 3.40033 80.642 3.35229 80.3831 3.38432C80.1566 3.41634 79.7682 3.57646 79.2179 3.86469C78.4735 4.18494 77.5025 4.90549 76.305 6.02636C75.1074 7.11521 74.007 8.33215 73.0036 9.67719C71.709 11.3745 70.6247 12.8797 69.7508 14.1927C68.8769 15.5057 68.2134 16.8508 67.7603 18.2278C67.6955 18.3559 67.5822 18.5961 67.4204 18.9484C67.291 19.3007 67.2262 19.4768 67.2262 19.4768C67.2586 19.6049 67.21 19.9251 67.0806 20.4375C66.9511 20.9179 66.8055 21.3342 66.6436 21.6865C66.2876 23.1596 66.0772 24.6968 66.0125 26.2981C65.9477 27.8673 66.0287 29.2604 66.2552 30.4773C66.5142 31.6943 66.8864 32.5429 67.3719 33.0233C67.7926 33.3115 68.359 33.4076 69.0711 33.3115C69.8155 33.2154 70.657 32.9913 71.5957 32.639C72.5343 32.2867 73.4891 31.9024 74.4601 31.4861C75.2369 31.1659 75.9489 30.8136 76.5963 30.4293C77.2436 30.045 77.7291 29.7087 78.0527 29.4205C78.3117 29.2283 78.6353 29.0362 79.0237 28.8441C79.4445 28.6199 79.8005 28.5078 80.0918 28.5078C80.5449 28.3477 80.8039 28.2836 80.8686 28.3156C80.9333 28.3477 80.9657 28.4918 80.9657 28.748C80.9657 29.1963 80.7068 29.6927 80.1889 30.2371C79.7034 30.7816 79.0723 31.2779 78.2955 31.7263C78.0366 31.9825 77.6967 32.2547 77.276 32.5429C76.8552 32.8311 76.4182 33.0553 75.9651 33.2154C75.2854 33.7278 74.4439 34.2242 73.4405 34.7046C72.4372 35.185 71.4177 35.5532 70.3819 35.8094C69.3786 36.0656 68.4561 36.1137 67.6146 35.9536Z" fill="white"/>
<path d="M88.1469 34.2242C86.9493 33.3275 86.1887 32.639 85.865 32.1586C85.5414 31.6462 85.3472 31.0378 85.2824 30.3332C85.2177 29.7568 85.2177 28.9722 85.2824 27.9794C85.3795 26.9866 85.4928 26.0099 85.6223 25.0491C85.7517 24.0884 85.865 23.3678 85.9621 22.8874C86.124 22.7273 86.1887 22.5191 86.1563 22.2629C86.1563 21.9747 86.1563 21.8306 86.1563 21.8306C86.124 21.6705 86.2372 21.2542 86.4962 20.5816C86.7551 19.8771 86.9979 18.9804 87.2244 17.8916C87.8717 15.9701 88.4867 14.3688 89.0693 13.0878C89.6843 11.7748 90.283 10.654 90.8656 9.72523C91.4482 8.79651 92.0308 7.94785 92.6134 7.17926C93.9404 5.83421 95.0085 4.82543 95.8177 4.15291C96.6268 3.44837 97.5331 2.87192 98.5364 2.42357C99.1838 2.03927 99.7825 1.73504 100.333 1.51087C100.883 1.28669 101.336 1.25467 101.692 1.41479C103.505 1.79909 104.864 2.53566 105.77 3.6245C106.677 4.68132 107.34 6.3306 107.761 8.57234C107.987 9.98143 108.117 11.2624 108.149 12.4153C108.214 13.5362 108.133 14.6571 107.906 15.7779C107.68 16.8668 107.259 18.0677 106.644 19.3807C106.062 20.6937 105.236 22.2309 104.168 23.9923C103.035 26.202 101.757 28.1235 100.333 29.7568C98.941 31.39 97.5007 32.671 96.0119 33.5997C94.5554 34.5605 93.1313 35.1049 91.7395 35.233C90.3801 35.3611 89.1826 35.0248 88.1469 34.2242ZM91.254 32.8311C91.9984 32.7351 92.7105 32.5109 93.3902 32.1586C94.0699 31.8063 94.7819 31.2939 95.5264 30.6214C96.2708 29.9169 97.1123 29.0362 98.0509 27.9794C98.8925 27.0186 99.5722 26.218 100.09 25.5775C100.64 24.905 101.093 24.2325 101.449 23.56C101.838 22.8874 102.194 22.0708 102.517 21.1101C102.874 20.1493 103.278 18.9003 103.731 17.3632C103.99 16.4024 104.184 15.6018 104.314 14.9613C104.443 14.3208 104.524 13.7283 104.557 13.1839C104.589 12.6075 104.589 11.951 104.557 11.2144C104.557 10.4778 104.557 9.53308 104.557 8.38019C104.524 7.83577 104.411 7.27533 104.217 6.69889C104.023 6.09041 103.796 5.64207 103.537 5.35384C103.213 5.00157 102.76 4.76138 102.178 4.63329C101.595 4.47316 100.948 4.55322 100.236 4.87347C99.8473 5.0336 99.3456 5.40188 98.7306 5.97833C98.1157 6.52275 97.4683 7.16325 96.7887 7.89982C96.109 8.63639 95.4616 9.38897 94.8467 10.1576C94.2641 10.9262 93.7786 11.6147 93.3902 12.2232C93.0342 12.7996 92.8562 13.1999 92.8562 13.4241C92.8562 13.4241 92.84 13.5042 92.8076 13.6643C92.8076 13.8244 92.7429 13.9845 92.6134 14.1447C92.1926 14.593 91.7233 15.3936 91.2055 16.5465C90.72 17.6994 90.2507 19.0124 89.7975 20.4856C89.3444 21.9267 88.956 23.3678 88.6323 24.8089C88.3411 26.218 88.163 27.451 88.0983 28.5078C88.0336 29.3725 88.0012 29.9649 88.0012 30.2852C88.0012 30.6054 88.0659 30.8616 88.1954 31.0538C88.3249 31.2139 88.5353 31.5341 88.8265 32.0145C89.0207 32.3348 89.3444 32.5749 89.7975 32.7351C90.283 32.8952 90.7685 32.9272 91.254 32.8311Z" fill="white"/>
<path d="M135.827 34.3203C135.827 34.3203 135.746 34.2082 135.584 33.984C135.422 33.7919 135.18 33.4877 134.856 33.0713C134.694 32.623 134.532 31.9184 134.37 30.9577C134.241 29.9649 134.225 28.6999 134.322 27.1627C134.257 26.6824 134.257 25.9138 134.322 24.857C134.419 23.8001 134.548 22.6312 134.71 21.3502C134.905 20.0372 135.099 18.7722 135.293 17.5553C135.519 16.3384 135.73 15.3616 135.924 14.625C136.054 12.6075 136.183 11.2304 136.312 10.4938C136.442 9.72523 136.507 9.26087 136.507 9.10075C136.474 8.97265 136.183 9.27688 135.633 10.0135C135.083 10.718 134.468 11.6627 133.788 12.8477C133.367 13.5202 132.979 14.1126 132.623 14.625C132.299 15.1054 132.072 15.4256 131.943 15.5858C131.652 16.0021 131.377 16.5145 131.118 17.123C130.891 17.6994 130.406 18.6922 129.661 20.1013C128.367 22.0868 127.347 23.576 126.603 24.5687C125.891 25.5295 125.308 26.154 124.855 26.4422C124.402 26.6984 123.949 26.7784 123.495 26.6824C122.557 26.4582 121.909 26.0739 121.553 25.5295C121.23 24.9851 121.036 24.0243 120.971 22.6472C120.938 21.7826 120.922 21.03 120.922 20.3895C120.922 19.749 120.922 19.3167 120.922 19.0925C121.052 18.8043 121.084 18.484 121.019 18.1317C120.987 17.7795 120.987 17.5233 121.019 17.3632C120.987 17.2351 121.036 16.9949 121.165 16.6426C121.327 16.2583 121.424 15.842 121.456 15.3936C121.553 14.7852 121.634 14.0486 121.699 13.1839C121.796 12.2872 121.845 11.4866 121.845 10.7821C121.877 10.0775 121.845 9.69321 121.748 9.62916C121.812 9.75726 121.748 9.94941 121.553 10.2056C121.392 10.4298 121.262 10.6219 121.165 10.7821C120.55 11.5827 119.838 12.8316 119.029 14.529C118.22 16.1942 117.184 18.3079 115.922 20.8699C115.825 21.5744 115.549 22.4871 115.096 23.608C114.643 24.7289 114.19 25.7216 113.737 26.5863C113.543 27.0987 113.316 27.6751 113.057 28.3156C112.798 28.9241 112.539 29.5006 112.28 30.045C112.022 30.5894 111.779 31.0217 111.552 31.342C111.131 32.4949 110.759 33.1834 110.436 33.4076C110.144 33.6638 109.659 33.5677 108.979 33.1194C108.526 32.703 108.219 32.2867 108.057 31.8704C107.895 31.4541 107.992 30.9417 108.348 30.3332C108.672 29.9809 108.995 29.4685 109.319 28.796C109.675 28.1235 109.966 27.483 110.193 26.8745C110.452 26.2661 110.565 25.9138 110.533 25.8177C110.5 25.6896 110.549 25.5135 110.678 25.2893C110.84 25.0331 111.164 24.5527 111.649 23.8482C111.617 23.7201 111.746 23.2717 112.038 22.5031C112.361 21.7025 112.798 20.7578 113.349 19.6689C113.446 19.5088 113.543 19.3167 113.64 19.0925C113.737 18.8683 113.769 18.6762 113.737 18.516C113.834 18.3879 113.915 18.2118 113.98 17.9876C114.077 17.7635 114.222 17.5873 114.417 17.4592C114.481 17.171 114.611 16.8187 114.805 16.4024C114.999 15.9861 115.113 15.6338 115.145 15.3456C115.274 15.0574 115.388 14.8012 115.485 14.577C115.614 14.3528 115.76 14.1447 115.922 13.9525C116.051 13.8564 116.164 13.6963 116.262 13.4721C116.359 13.248 116.472 13.0718 116.601 12.9437C116.731 12.5594 116.941 12.1111 117.233 11.5987C117.524 11.0863 117.88 10.5098 118.301 9.86934C118.721 9.22885 119.158 8.55632 119.611 7.85178C119.838 7.49951 120.016 7.17926 120.145 6.89103C120.275 6.57079 120.502 6.17048 120.825 5.6901C120.825 5.6901 120.938 5.51397 121.165 5.16169C121.424 4.80942 121.683 4.3931 121.942 3.91273C122.104 3.68855 122.298 3.40033 122.524 3.04806C122.751 2.66376 122.978 2.3275 123.204 2.03927C123.431 1.75105 123.592 1.60694 123.69 1.60694C123.884 1.57491 124.191 1.70301 124.612 1.99124C125.033 2.27946 125.421 2.61572 125.777 3.00002C126.133 3.38432 126.311 3.70456 126.311 3.96076C126.311 4.08886 126.279 4.3931 126.214 4.87347C126.149 5.35384 126.052 5.91428 125.923 6.55477C125.793 7.19527 125.632 7.80374 125.437 8.38019C125.405 9.05271 125.308 9.83732 125.146 10.734C125.017 11.6307 124.871 12.5434 124.709 13.4721C124.547 14.4009 124.434 15.2976 124.369 16.1622C124.272 17.2511 124.094 18.2118 123.835 19.0445C123.609 19.8771 123.495 20.2934 123.495 20.2934C123.56 20.4215 123.609 20.5816 123.641 20.7738C123.706 20.9339 123.738 21.1581 123.738 21.4463V22.5031L125.583 20.5336C126.036 19.8291 126.457 19.1886 126.845 18.6121C127.266 18.0036 127.638 17.4432 127.962 16.9308C127.962 16.7707 128.027 16.5946 128.156 16.4024C128.318 16.2103 128.447 15.9541 128.545 15.6338C128.739 15.5057 128.917 15.3136 129.079 15.0574C129.273 14.8012 129.354 14.529 129.321 14.2407C129.645 13.7604 130.098 13.1199 130.681 12.3192C131.263 11.4866 131.894 10.6059 132.574 9.67719C133.286 8.71645 133.982 7.78773 134.662 6.89103C135.341 5.99434 135.94 5.22574 136.458 4.58525C137.008 3.91273 137.397 3.48039 137.623 3.28824C138.076 2.93597 138.562 2.74382 139.08 2.71179C139.63 2.67977 140.164 2.93597 140.682 3.48039C141.103 3.92874 141.345 4.36107 141.41 4.7774C141.475 5.16169 141.362 5.72213 141.07 6.4587C140.682 7.73969 140.294 8.94062 139.905 10.0615C139.517 11.1824 139.339 11.967 139.371 12.4153C139.242 12.7035 139.145 13.0558 139.08 13.4721C139.015 13.8885 138.966 14.2247 138.934 14.4809C138.805 14.7691 138.708 15.0414 138.643 15.2976C138.61 15.5537 138.513 15.7459 138.352 15.874C138.352 16.0341 138.384 16.3063 138.449 16.6906C138.546 17.0429 138.562 17.4112 138.497 17.7955C138.044 20.6777 137.737 23.0796 137.575 25.0011C137.413 26.8905 137.397 28.3317 137.526 29.3244C137.688 30.2852 137.979 30.8296 138.4 30.9577C138.53 30.9257 138.594 30.9897 138.594 31.1498C138.627 31.31 138.578 31.6943 138.449 32.3027C138.481 32.4949 138.465 32.7191 138.4 32.9753C138.368 33.1994 138.319 33.4076 138.254 33.5997C138.19 33.7919 138.125 33.936 138.06 34.0321C137.769 34.3523 137.526 34.5285 137.332 34.5605C137.17 34.5925 136.668 34.5124 135.827 34.3203Z" fill="white"/>
<path d="M152.829 35.0889C151.534 35.0889 150.369 35.0088 149.333 34.8487C148.33 34.7206 147.407 34.3363 146.566 33.6958C145.563 32.9592 144.98 31.9985 144.818 30.8136C144.689 29.5966 144.931 27.8513 145.546 25.5775C145.708 24.7769 145.886 24.0724 146.08 23.4639C146.307 22.8554 146.501 22.5512 146.663 22.5512C146.695 22.3911 146.744 22.1669 146.809 21.8787C146.873 21.5584 146.938 21.1901 147.003 20.7738C147.165 20.1973 147.278 19.781 147.343 19.5248C147.407 19.2366 147.537 18.9964 147.731 18.8043C147.828 18.7402 147.941 18.5321 148.071 18.1798C148.2 17.7955 148.281 17.5713 148.314 17.5073C148.314 17.5073 148.33 17.3952 148.362 17.171C148.395 16.9148 148.475 16.6266 148.605 16.3063C149.09 15.5057 149.333 14.9773 149.333 14.7211C149.398 14.593 149.527 14.4009 149.722 14.1447C149.948 13.8885 150.126 13.5522 150.256 13.1359C151.227 11.4386 152.02 9.98143 152.635 8.76449C153.25 7.51552 153.622 6.5868 153.751 5.97833C153.913 5.62605 154.059 5.32182 154.188 5.06562C154.35 4.7774 154.544 4.50519 154.771 4.24899C154.706 4.08886 154.835 3.91273 155.159 3.72058C155.483 3.52843 155.936 3.32027 156.519 3.09609C157.101 2.87192 157.732 2.67977 158.412 2.51965C159.124 2.35952 159.82 2.26345 160.5 2.23142C160.694 2.10332 161.115 2.00725 161.762 1.9432C162.442 1.87915 163.218 1.84712 164.092 1.84712C164.966 1.84712 165.775 1.87915 166.52 1.9432C167.232 1.9432 167.798 2.03927 168.219 2.23142C168.64 2.42357 169.06 2.61572 169.481 2.80787C169.643 2.968 169.756 3.16014 169.821 3.38432C169.918 3.60849 169.983 3.81665 170.015 4.0088C170.048 4.16892 170.064 4.24899 170.064 4.24899C170.064 4.40911 169.611 4.50518 168.704 4.53721C167.798 4.56924 166.811 4.58525 165.743 4.58525C164.545 4.58525 163.396 4.68132 162.296 4.87347C161.195 5.06562 160.467 5.16169 160.111 5.16169C159.658 5.28979 159.253 5.36985 158.897 5.40188C158.574 5.4339 158.412 5.44992 158.412 5.44992C158.347 5.44992 158.137 5.70612 157.781 6.21851C157.457 6.69889 157.085 7.27533 156.664 7.94785C156.276 8.58835 155.92 9.19682 155.596 9.77327C155.305 10.3177 155.159 10.6379 155.159 10.734C155.159 11.0543 155.03 11.4065 154.771 11.7908C154.512 12.1751 154.204 12.6235 153.848 13.1359C153.525 13.5522 153.314 13.9365 153.217 14.2888C153.12 14.609 153.217 14.8332 153.508 14.9613C154.026 14.8652 154.722 14.7691 155.596 14.6731C156.502 14.577 157.392 14.4969 158.266 14.4329C159.173 14.3368 159.868 14.2888 160.354 14.2888C160.904 14.1286 161.357 14.0966 161.713 14.1927C162.069 14.2888 162.328 14.3848 162.49 14.4809C162.878 14.545 163.154 14.6731 163.315 14.8652C163.477 15.0253 163.542 15.1855 163.51 15.3456C163.51 15.5057 163.396 15.6338 163.17 15.7299C162.976 15.922 162.49 16.1462 161.713 16.4024C160.937 16.6586 160.03 16.9148 158.995 17.171C157.959 17.4272 156.907 17.6674 155.839 17.8916C154.803 18.0837 153.913 18.2438 153.169 18.3719C152.424 18.5 151.987 18.5481 151.858 18.516C151.664 18.0677 151.518 18.0837 151.421 18.5641C151.356 19.0124 151 19.9412 150.353 21.3502C149.997 22.1509 149.673 22.9195 149.382 23.656C149.123 24.3606 148.896 25.1132 148.702 25.9138C148.54 26.6824 148.362 27.5631 148.168 28.5558C147.941 29.4205 147.877 30.125 147.974 30.6695C148.103 31.1819 148.686 31.6782 149.722 32.1586C150.369 32.2867 151.227 32.3348 152.295 32.3027C153.395 32.2707 154.641 32.0786 156.033 31.7263C156.616 31.374 157.15 31.1018 157.635 30.9097C158.121 30.6855 158.477 30.5093 158.703 30.3812C158.865 30.3812 159.108 30.3492 159.431 30.2852C159.788 30.1891 160.03 30.1411 160.16 30.1411C160.419 29.7888 160.742 29.6126 161.131 29.6126C161.195 29.6126 161.341 29.7407 161.568 29.9969C161.827 30.2211 162.069 30.4773 162.296 30.7655C162.522 31.0538 162.62 31.2459 162.587 31.342C162.587 31.6622 162.231 31.9825 161.519 32.3027C160.807 32.623 159.642 33.1034 158.024 33.7438C157.214 34.0961 156.551 34.3683 156.033 34.5605C155.548 34.7526 155.078 34.8807 154.625 34.9448C154.172 35.0409 153.573 35.0889 152.829 35.0889Z" fill="white"/>
<path d="M186.475 33.936C185.893 33.8399 185.278 33.6158 184.631 33.2635C183.983 32.9432 183.401 32.5749 182.883 32.1586C182.397 31.7103 182.057 31.2779 181.863 30.8616C181.281 29.8688 180.941 28.812 180.844 27.6912C180.747 26.5383 180.957 25.4654 181.475 24.4727C181.54 24.1204 181.588 23.7361 181.62 23.3198C181.685 22.9034 181.718 22.5512 181.718 22.2629C181.718 22.2629 181.766 22.1989 181.863 22.0708C181.993 21.9107 182.057 21.8306 182.057 21.8306C182.155 21.8306 182.219 21.7826 182.252 21.6865C182.284 21.5904 182.333 21.4623 182.397 21.3022C182.527 21.078 182.624 20.9179 182.689 20.8218C182.786 20.7258 182.834 20.6777 182.834 20.6777C183.028 20.6777 183.142 20.6137 183.174 20.4856C183.206 20.3254 183.206 19.9732 183.174 19.4288C183.142 19.3007 183.142 19.1886 183.174 19.0925C183.206 18.9964 183.223 18.9003 183.223 18.8043C183.384 18.6441 183.514 18.516 183.611 18.42C183.708 18.3239 183.757 18.2118 183.757 18.0837C183.886 17.9876 183.999 17.9076 184.096 17.8435C184.226 17.7795 184.291 17.7475 184.291 17.7475C184.485 17.8115 184.582 17.8275 184.582 17.7955C184.614 17.7314 184.695 17.6514 184.825 17.5553C184.825 17.3952 184.922 17.0589 185.116 16.5465C185.343 16.0341 185.585 15.4737 185.844 14.8652C186.103 14.2567 186.297 13.7604 186.427 13.3761C187.624 11.2304 188.757 9.421 189.825 7.94785C190.893 6.44269 191.913 5.24176 192.884 4.34506C193.887 3.41634 194.842 2.75983 195.748 2.37554C195.91 2.31149 196.153 2.27946 196.477 2.27946C196.833 2.24744 197.172 2.21541 197.496 2.18339C197.949 2.18339 198.451 2.26345 199.001 2.42357C199.551 2.55167 200.037 2.69578 200.458 2.85591C200.878 2.98401 201.105 3.09609 201.137 3.19217C201.137 3.32027 201.186 3.40033 201.283 3.43235C201.38 3.46438 201.429 3.48039 201.429 3.48039C201.623 3.44837 201.866 3.6245 202.157 4.0088C202.448 4.3931 202.756 4.87347 203.079 5.44992C203.435 6.02636 203.727 6.60281 203.953 7.17926C204.309 7.69166 204.503 8.44424 204.536 9.43701C204.568 10.4298 204.552 11.4065 204.487 12.3673C204.39 13.0718 204.245 13.8564 204.05 14.7211C203.856 15.5858 203.646 16.3864 203.419 17.123C203.225 17.8275 203.063 18.3399 202.934 18.6602C202.901 18.7562 202.82 18.9644 202.691 19.2846C202.594 19.6049 202.481 19.9251 202.351 20.2454C202.254 20.5656 202.173 20.8058 202.108 20.9659C201.817 21.7986 201.412 22.7273 200.895 23.7521C200.409 24.7449 199.875 25.7056 199.292 26.6343C198.71 27.5631 198.143 28.3317 197.593 28.9401C197.043 29.5486 196.574 29.8688 196.185 29.9009C196.185 29.9009 196.153 29.9169 196.088 29.9489C196.056 29.9809 196.04 30.061 196.04 30.1891C196.04 30.2531 195.781 30.5093 195.263 30.9577C194.777 31.406 194.227 31.8704 193.612 32.3508C193.03 32.7991 192.593 33.1354 192.301 33.3596C191.622 33.5837 190.91 33.7599 190.165 33.888C189.453 34.0481 188.773 34.1281 188.126 34.1281C187.479 34.1281 186.929 34.0641 186.475 33.936ZM186.718 31.342C187.786 31.342 188.773 31.2299 189.68 31.0057C190.618 30.7495 191.525 30.3332 192.398 29.7568C193.305 29.1483 194.195 28.3317 195.069 27.3069C195.23 26.9546 195.409 26.6343 195.603 26.3461C195.797 26.0579 195.894 25.9138 195.894 25.9138C196.088 25.8818 196.185 25.7857 196.185 25.6256C196.185 25.6256 196.218 25.5135 196.282 25.2893C196.347 25.0331 196.444 24.8409 196.574 24.7128C196.897 24.4567 197.172 24.2485 197.399 24.0884C197.658 23.8962 197.787 23.8001 197.787 23.8001C197.787 23.7041 197.836 23.4639 197.933 23.0796C198.063 22.6953 198.208 22.311 198.37 21.9267C198.532 21.5424 198.661 21.3182 198.758 21.2542C198.823 21.1901 198.969 20.8378 199.195 20.1973C199.454 19.5248 199.697 18.7722 199.924 17.9396C200.183 17.0749 200.312 16.3704 200.312 15.826C200.474 15.6658 200.603 15.5057 200.7 15.3456C200.83 15.1534 200.895 15.0574 200.895 15.0574C201.024 14.9613 201.073 14.8652 201.04 14.7691C201.04 14.641 201.04 14.4329 201.04 14.1447C201.04 13.6963 201.073 13.3761 201.137 13.1839C201.202 12.9918 201.234 12.8957 201.234 12.8957C201.396 12.7356 201.477 12.6395 201.477 12.6075C201.51 12.5434 201.493 12.4954 201.429 12.4634C201.008 12.2072 201.008 12.031 201.429 11.9349C201.493 11.7748 201.51 11.4546 201.477 10.9742C201.445 10.4618 201.38 9.90137 201.283 9.2929C201.218 8.6524 201.121 8.05994 200.992 7.51552C200.895 6.93907 200.797 6.53876 200.7 6.31459C200.441 5.96231 200.102 5.72213 199.681 5.59403C199.292 5.4339 198.661 5.48194 197.787 5.73814C196.816 5.96231 196.04 6.31459 195.457 6.79496C194.874 7.27533 194.114 7.99589 193.175 8.95663C193.046 9.43701 192.868 9.83732 192.641 10.1576C192.415 10.4778 192.253 10.6379 192.156 10.6379C192.026 10.6379 191.897 10.734 191.767 10.9262C191.638 11.1183 191.557 11.3585 191.525 11.6467C190.974 11.967 190.57 12.2552 190.311 12.5114C190.052 12.7356 189.89 12.9277 189.825 13.0878C189.502 13.6002 189.097 14.3528 188.612 15.3456C188.158 16.3063 187.673 17.3792 187.155 18.5641C186.67 19.717 186.2 20.8699 185.747 22.0228C185.326 23.1757 184.97 24.2325 184.679 25.1932C184.388 26.1219 184.21 26.8265 184.145 27.3069C183.886 27.9794 183.789 28.6359 183.854 29.2764C183.918 29.8849 184.096 30.2211 184.388 30.2852C184.647 30.5734 185.019 30.8136 185.504 31.0057C185.99 31.1979 186.394 31.31 186.718 31.342Z" fill="white"/>
<path d="M208.861 33.0713C208.699 33.4556 208.473 33.7118 208.182 33.8399C207.923 34 207.631 34 207.308 33.8399C207.016 33.7118 206.757 33.4076 206.531 32.9272C206.142 32.5749 205.964 32.0145 205.997 31.2459C206.029 30.4453 206.207 29.7407 206.531 29.1323C206.693 28.8441 206.822 28.4758 206.919 28.0274C207.016 27.547 207.081 27.0987 207.113 26.6824C207.308 26.0099 207.502 25.3213 207.696 24.6168C207.923 23.8802 208.165 23.1276 208.424 22.359C208.683 21.5904 208.958 20.7738 209.25 19.9091C209.832 18.1478 210.334 16.6106 210.755 15.2976C211.175 13.9845 211.596 12.7356 212.017 11.5506C212.438 10.3337 212.923 9.05271 213.473 7.70767C213.603 7.45147 213.749 7.13122 213.91 6.74692C214.105 6.3306 214.186 5.96232 214.153 5.64207C214.25 5.12967 214.38 4.71335 214.542 4.3931C214.736 4.04083 214.898 3.80064 215.027 3.67254C215.383 3.25622 215.61 3.03204 215.707 3.00002C215.804 2.93597 215.982 2.96799 216.241 3.09609C216.564 3.16014 216.823 3.22419 217.018 3.28824C217.244 3.32027 217.454 3.44837 217.649 3.67254C217.875 3.89671 218.102 4.31304 218.328 4.92151C218.62 5.36986 218.862 5.83421 219.057 6.31459C219.251 6.79496 219.283 7.45147 219.154 8.28411C219.218 8.98866 219.283 9.70922 219.348 10.4458C219.445 11.1824 219.526 11.9189 219.591 12.6555C219.688 13.36 219.753 14.0486 219.785 14.7211C219.85 15.3936 219.866 16.0341 219.833 16.6426C219.833 17.187 219.866 17.9876 219.931 19.0445C220.028 20.0693 220.141 21.1581 220.27 22.311C220.432 23.4319 220.594 24.4086 220.756 25.2413C220.95 26.0739 221.144 26.5543 221.338 26.6824C221.468 26.7464 221.646 26.6343 221.872 26.3461C222.131 26.0259 222.471 25.1612 222.892 23.7521C223.022 23.3038 223.2 22.8714 223.426 22.4551C223.685 22.0388 223.944 21.5744 224.203 21.062C224.462 20.5176 224.672 19.8611 224.834 19.0925C225.255 18.0357 225.595 17.107 225.854 16.3063C226.145 15.5057 226.42 14.6891 226.679 13.8564C226.938 13.0238 227.245 12.0951 227.601 11.0703C227.698 10.654 227.909 10.0615 228.232 9.2929C228.556 8.5243 228.912 7.83577 229.301 7.22729C229.624 6.5868 229.948 5.93029 230.272 5.25777C230.628 4.58525 230.806 4.18494 230.806 4.05684C230.806 4.05684 230.822 3.97678 230.854 3.81665C230.919 3.6245 231.016 3.46438 231.145 3.33628C231.307 3.20818 231.518 3.06407 231.777 2.90394C232.036 2.74382 232.214 2.4556 232.311 2.03927C232.44 1.9432 232.553 1.86314 232.65 1.79909C232.748 1.73504 232.861 1.70301 232.99 1.70301C233.152 1.67099 233.33 1.70301 233.524 1.79909C233.783 2.02326 233.897 2.24744 233.864 2.47161C233.864 2.66376 233.67 3.25622 233.282 4.24899C233.185 4.92151 233.039 5.49796 232.845 5.97833C232.683 6.42667 232.521 6.77895 232.359 7.03515C232.23 7.35539 232.084 7.73969 231.922 8.18804C231.793 8.60436 231.647 8.98866 231.485 9.34093C231.356 9.91738 231.243 10.3817 231.145 10.734C231.081 11.0863 231.048 11.3265 231.048 11.4546C231.048 11.4546 231.016 11.5026 230.951 11.5987C230.919 11.6627 230.838 11.7748 230.709 11.9349C230.611 12.0951 230.498 12.2712 230.369 12.4634C230.272 12.6555 230.142 12.8797 229.98 13.1359C229.527 14.2888 229.171 15.2655 228.912 16.0661C228.686 16.8347 228.475 17.5073 228.281 18.0837C228.119 18.6602 227.941 19.2526 227.747 19.8611C227.585 20.4375 227.342 21.1101 227.019 21.8787C226.922 22.7753 226.744 23.4959 226.485 24.0403C226.226 24.5847 226.096 24.857 226.096 24.857C226.096 25.0491 225.983 25.4174 225.756 25.9618C225.53 26.5062 225.239 27.0827 224.883 27.6912C224.559 28.2996 224.251 28.8601 223.96 29.3725C223.701 29.8849 223.523 30.2211 223.426 30.3812C223.102 30.8936 222.795 31.1979 222.504 31.294C222.212 31.358 221.889 31.406 221.533 31.4381C220.95 31.5021 220.497 31.406 220.173 31.1498C219.85 30.8616 219.461 30.2371 219.008 29.2764C218.62 28.4758 218.247 27.6591 217.891 26.8265C217.568 25.9618 217.293 24.905 217.066 23.656C216.84 22.4071 216.726 20.8218 216.726 18.9003C216.726 18.5481 216.726 18.1157 216.726 17.6033C216.726 17.0589 216.694 16.6106 216.629 16.2583C216.629 16.0982 216.581 15.6818 216.484 15.0093C216.419 14.3368 216.338 13.5202 216.241 12.5594C216.176 11.5987 216.111 10.6219 216.047 9.62916C215.626 10.4938 215.221 11.6147 214.833 12.9918C214.444 14.3688 214.04 15.7459 213.619 17.123C213.198 18.468 212.697 19.6049 212.114 20.5336C211.985 21.4944 211.823 22.311 211.629 22.9835C211.434 23.656 211.256 24.1204 211.095 24.3766C210.965 24.7929 210.836 25.2893 210.706 25.8657C210.577 26.4102 210.463 26.9226 210.366 27.4029C210.302 27.8833 210.221 28.2676 210.124 28.5558C210.124 28.8761 210.026 29.3404 209.832 29.9489C209.67 30.5254 209.492 31.1178 209.298 31.7263C209.104 32.3027 208.958 32.7511 208.861 33.0713Z" fill="white"/>
<path d="M57.4589 49.7789C56.1865 49.6304 54.3575 45.8881 53.3955 44.9338C48.3532 39.9319 43.4209 34.8146 38.3799 29.8205C30.1387 21.6559 21.5593 13.7502 13.6273 5.32568" stroke="white" stroke-width="3" stroke-linecap="round"/>
<path d="M226.541 46.7774C227.813 46.6289 229.642 42.8867 230.605 41.9323C235.647 36.9305 240.579 31.8132 245.62 26.819C253.861 18.6545 262.441 10.7488 270.373 2.32422" stroke="white" stroke-width="3" stroke-linecap="round"/>
<path d="M45.6945 53.5949C32.6886 39.4394 17.1556 27.5805 2 15.7656" stroke="white" stroke-width="3" stroke-linecap="round"/>
<path d="M238.306 50.5935C251.311 36.4379 266.844 24.579 282 12.7642" stroke="white" stroke-width="3" stroke-linecap="round"/>
</svg>
