<svg width="85" height="157" viewBox="0 0 85 157" fill="none" xmlns="http://www.w3.org/2000/svg">
<path d="M45.3285 114.753C42.669 108.586 39.8171 101.973 36.9855 95.4077L18.2132 92.0981C20.9411 98.4234 23.7902 105.03 26.5559 111.444L45.3285 114.753Z" fill="#0C8543"/>
<path d="M78.7807 21.3403C78.2525 21.2498 77.7246 21.1665 77.1961 21.099C76.8433 21.0516 76.4923 21.0085 76.1435 20.9699C75.9687 20.9507 75.7969 20.9303 75.6203 20.9154L75.0904 20.8725C74.3857 20.8198 73.6901 20.7831 73.0041 20.7612L72.492 20.7471H71.9718C71.6265 20.7488 71.2834 20.7549 70.943 20.7635C70.6027 20.7733 70.2647 20.7865 69.9298 20.8031C69.5956 20.819 69.2636 20.8392 68.9241 20.8709C65.7511 21.1359 62.7426 21.8009 59.9567 22.8158C60.6529 23.4634 61.3149 24.1514 61.9406 24.8785C63.5974 26.8074 64.9934 29.0104 66.0605 31.4838C67.4814 34.7808 68.1506 38.1677 68.1648 41.516C68.1812 45.8811 71.7651 49.4062 76.1696 49.3895C80.5737 49.3737 84.1309 45.8213 84.1141 41.4563C84.0951 36.0447 82.9979 30.5343 80.727 25.2711C80.1427 23.9145 79.4911 22.6036 78.7807 21.3403Z" fill="#0C8543"/>
<path d="M2.61445 51.5524C5.2437 52.6889 7.86089 53.531 10.5054 54.0574C10.834 54.124 11.1609 54.1864 11.4857 54.2444L12.4649 54.4145L14.4452 54.7637L18.4062 55.4622L19.871 55.7211C19.1852 54.1303 18.6104 52.7974 18.1681 51.7729C16.7476 48.4755 16.0781 45.088 16.0644 41.7406C16.0607 40.9054 16.0998 40.0727 16.1781 39.2452L15.801 39.0057C15.54 38.8372 15.2782 38.6636 15.0172 38.4864C14.756 38.3092 14.4952 38.1268 14.2346 37.9398L13.8441 37.6564L13.467 37.3685C12.965 36.9799 12.4649 36.5728 11.9674 36.1482L11.5957 35.8264L11.2372 35.5008C10.9987 35.2815 10.7608 35.0571 10.5242 34.8288C10.2873 34.6007 10.0514 34.3683 9.81627 34.1303L9.46589 33.7715L9.12856 33.4093C8.6799 32.9215 8.23579 32.4169 7.79683 31.895C7.57398 31.6326 7.36439 31.3694 7.15716 31.1027C6.94895 30.8357 6.74212 30.5639 6.53668 30.2884C5.70046 29.1809 4.95244 28.0273 4.21668 26.8032C3.95172 26.3503 3.69229 25.89 3.43939 25.4204C2.29353 28.1077 1.43043 30.9118 0.871238 33.788C0.106804 37.7223 -0.0901383 41.7926 0.332614 45.8723C0.505828 47.542 0.784631 49.2134 1.16883 50.8761C1.65228 51.1102 2.13455 51.3384 2.61445 51.5524Z" fill="#0C8543"/>
<path d="M5.48434 62.5811C7.53187 67.3295 10.4722 74.1486 13.8269 81.9266L32.5998 85.2369C29.563 78.1952 26.6866 71.525 24.2569 65.8914L5.48434 62.5811Z" fill="#0C8543"/>
<path d="M52.8805 18.1263C53.2411 17.8368 53.6091 17.5542 53.9816 17.285C56.028 15.7757 58.2796 14.4991 60.7455 13.42C61.9653 12.9005 63.2569 12.4056 64.5665 12.01C64.8957 11.9075 65.2291 11.8081 65.566 11.7117C65.9027 11.6151 66.2436 11.5214 66.579 11.4408C67.2554 11.2741 67.9449 11.1186 68.6485 10.9766C69.1756 10.8658 69.6951 10.779 70.223 10.6992C64.5022 5.59808 57.5027 2.17902 50.025 0.750519C48.9286 0.540821 47.8213 0.376786 46.7067 0.253906C46.5815 0.375806 46.4543 0.497901 46.3312 0.620781L45.9569 0.996866L45.5881 1.38745C45.1009 1.91052 44.6311 2.43516 44.1802 2.96255L43.8451 3.35803L43.5162 3.76704C43.2993 4.04004 43.087 4.31363 42.8789 4.58742C42.6711 4.8614 42.4681 5.13498 42.2693 5.40877L41.9745 5.82033L41.6868 6.24482C41.308 6.81061 40.9473 7.37758 40.6046 7.94259L40.3509 8.36728L40.1053 8.80334C39.9438 9.09476 39.7866 9.38599 39.634 9.67662C39.4817 9.96687 39.334 10.2573 39.1902 10.547L38.9785 10.9803C38.9093 11.1261 38.8418 11.278 38.7748 11.4254C38.2419 12.6177 37.7784 13.7802 37.3968 14.9938C37.2544 15.4316 37.1265 15.8712 37.0051 16.3125C38.6698 15.9809 40.3399 15.8159 42.001 15.8086C45.7684 15.7934 49.4864 16.6004 52.8805 18.1263Z" fill="#0C8543"/>
<path d="M28.9768 17.9253C28.9703 17.3041 28.9786 16.6732 29.0029 16.0337C29.0159 15.7153 29.0294 15.389 29.0531 15.0703C29.0774 14.7544 29.1051 14.4359 29.1377 14.1157C29.2022 13.475 29.2823 12.8277 29.3792 12.1714C29.4824 11.5299 29.6032 10.8869 29.7402 10.2331C29.8088 9.90759 29.8818 9.57952 29.9583 9.25027C30.0341 8.91789 30.1217 8.60374 30.2094 8.27743C30.387 7.6305 30.5812 6.97789 30.7926 6.31998C30.8976 5.98721 31.0111 5.66874 31.1289 5.34616C31.2462 5.02318 31.3684 4.7004 31.4945 4.37566C31.6213 4.04995 31.7518 3.72442 31.8872 3.39812L32.0931 2.90778L32.31 2.42939C32.5281 1.95492 32.7564 1.47575 32.9947 0.997559C30.5037 1.54846 28.031 2.33218 25.6108 3.35755C20.2993 5.60681 15.664 8.83813 11.8771 12.7364C11.4966 13.1277 11.1259 13.526 10.763 13.9295C10.7905 14.1006 10.816 14.2727 10.8449 14.442C10.9074 14.792 10.9799 15.1455 11.0519 15.492C11.1978 16.1872 11.356 16.8678 11.5265 17.5365C11.7074 18.212 11.9067 18.8799 12.1133 19.5298C12.2174 19.8553 12.3245 20.1773 12.4339 20.4958C12.5472 20.818 12.6694 21.139 12.7906 21.4547C13.0344 22.0875 13.2895 22.7053 13.554 23.3079C13.8316 23.9194 14.1225 24.5169 14.4203 25.0988C14.5696 25.39 14.7208 25.6771 14.8749 25.9595C15.0352 26.2464 15.1992 26.5308 15.3645 26.8097C15.6955 27.3688 16.034 27.9117 16.3818 28.4381C16.7446 28.9735 17.1144 29.4919 17.4905 29.994C17.6801 30.2446 17.8678 30.4904 18.0619 30.7344C18.1568 30.851 18.2527 30.9635 18.3481 31.0781C18.8894 29.8789 19.5214 28.7189 20.2421 27.6126C21.6025 25.5217 23.27 23.6195 25.2155 21.977C26.3879 20.9883 27.6613 20.0933 29.0335 19.3062C29.0047 18.8484 28.9829 18.3843 28.9768 17.9253Z" fill="#0C8543"/>
<path d="M49.7144 124.924L30.9414 121.615C32.9229 126.209 34.7927 130.545 36.4608 134.412C40.8255 144.534 43.8095 151.454 43.8095 151.454C45.5404 155.468 50.2271 157.332 54.2771 155.616C58.327 153.9 60.2067 149.255 58.4757 145.241C58.4757 145.241 55.4913 138.321 51.1266 128.199C50.6704 127.141 50.199 126.048 49.7144 124.924Z" fill="#0C8543"/>
</svg>
