<svg width="228" height="24" viewBox="0 0 228 24" fill="none" xmlns="http://www.w3.org/2000/svg">
<path fill-rule="evenodd" clip-rule="evenodd" d="M73.6806 21.3325C63.0865 21.3325 57.7021 17.027 52.5986 12.946C48.9224 10.0065 45.392 7.18346 40.1652 6.16991C39.7811 6.11482 39.3893 6.06593 38.9892 6.02367C41.7426 7.27553 43.66 10.0754 43.66 13.3286C43.66 17.749 40.1196 21.3325 35.7523 21.3325C31.3851 21.3325 27.8447 17.749 27.8447 13.3286C27.8447 9.98287 29.8728 7.11663 32.7525 5.92064C26.1454 6.38958 22.2083 8.6874 18.2193 11.0156C13.6128 13.7041 8.93695 16.4331 0 16.4331C6.22252 15.7656 10.1173 12.6512 14.191 9.39377C19.2946 5.31281 24.679 1.00731 35.2731 1.00731C46.2127 1.00731 53.0749 6.09413 58.9181 10.4256C62.642 13.1861 65.9521 15.6397 69.6399 16.2743C70.1308 16.3335 70.637 16.3821 71.16 16.4192C68.2803 15.2232 66.2522 12.3569 66.2522 9.01124C66.2522 4.59078 69.7926 1.00729 74.1599 1.00729C78.5272 1.00729 82.0676 4.59078 82.0676 9.01124C82.0676 12.2644 80.1501 15.0643 77.3967 16.3161C83.6109 15.6599 87.8284 13.4031 92.0243 11.158C96.946 8.52438 101.838 5.90671 109.888 5.90671C105.43 5.90671 101.658 8.70286 97.3256 11.9142C91.4824 16.2457 84.6202 21.3325 73.6806 21.3325Z" fill="#0C4B06"/>
<path d="M211.529 14.8934V13.7471L214.43 14.8934H222.749L224.044 13.3813L226.514 15.3325C226.346 15.5276 226.13 15.6739 225.602 15.7715V22.7471C225.602 22.8691 224.739 23.3569 223.301 23.3569H222.845V15.5764H214.166V22.8691C214.166 23.0642 213.351 23.5276 212.008 23.5276H211.529V14.8934ZM212.799 20.8934H224.524V21.5764H212.799V20.8934ZM216.851 5.82027L220.544 6.13735C220.496 6.5032 220.304 6.72271 219.656 6.84467V15.3081H216.851V5.82027ZM218.194 9.89345H223.325L224.859 7.77149C224.859 7.77149 226.609 9.21052 227.64 10.1861C227.568 10.4544 227.329 10.5764 226.969 10.5764H218.194V9.89345ZM216.06 0.625153L219.656 0.917836C219.633 1.2593 219.441 1.5032 218.793 1.62515V4.69832H216.06V0.625153ZM209.011 4.47881H223.517L225.099 2.2593C225.099 2.2593 226.921 3.7471 228 4.77149C227.928 5.03979 227.664 5.16174 227.329 5.16174H209.011V4.47881ZM207.789 4.47881V4.23491V3.33247L210.953 4.47881H210.522V10.5764C210.522 14.6495 210.234 19.991 205.679 23.5032L205.439 23.2837C207.621 19.552 207.789 14.8447 207.789 10.5764V4.47881Z" fill="#0C4B06"/>
<path d="M187.673 0.552002L191.03 2.03981C190.934 2.28371 190.718 2.43005 190.166 2.38127C188.44 4.52761 185.228 6.89347 181.727 8.0642L181.511 7.79591C184.197 5.91786 186.594 2.86908 187.673 0.552002ZM192.109 0.771514L195.489 1.0642C195.441 1.38127 195.225 1.60078 194.746 1.67395V5.96664C194.746 6.3081 194.842 6.40566 195.705 6.40566H198.414C199.373 6.40566 200.26 6.40566 200.644 6.38127C200.956 6.35688 201.195 6.3081 201.363 6.13737C201.603 5.86908 201.962 5.23493 202.322 4.33249H202.562L202.682 6.16176C203.449 6.43005 203.689 6.72273 203.689 7.18615C203.689 8.33249 202.61 8.64956 198.126 8.64956H195.225C192.684 8.64956 192.109 8.21054 192.109 6.43005V0.771514ZM200.14 1.18615L202.658 3.47883C202.394 3.69834 201.915 3.72273 201.243 3.47883C199.253 4.01542 196.088 4.62517 193.355 4.84468L193.259 4.50322C195.657 3.67395 198.63 2.18615 200.14 1.18615ZM186.354 4.67395L187.17 3.62517L189.759 4.57639C189.663 4.7959 189.423 4.96664 189.016 5.03981V8.50322C188.968 8.67395 187.889 9.16176 186.834 9.16176H186.354V4.67395ZM187.122 12.4301H199.373V13.113H187.122V12.4301ZM187.122 15.2593H199.373V15.9422H187.122V15.2593ZM187.122 18.113H199.373V18.7959H187.122V18.113ZM197.479 9.67395H197.263L198.534 8.25932L201.171 10.3081C201.027 10.4788 200.74 10.674 200.308 10.7715V18.991C200.284 19.1861 198.894 19.7227 197.959 19.7227H197.479V9.67395ZM185.851 9.67395V8.45444L188.8 9.67395H199.445V10.3569H188.608V19.3813C188.608 19.674 187.409 20.3081 186.258 20.3081H185.851V9.67395ZM190.214 18.991L193.068 21.2593C192.852 21.5032 192.42 21.5764 191.677 21.3569C189.327 22.43 185.587 23.3081 181.919 23.5276L181.823 23.1861C185.06 22.2837 188.536 20.5032 190.214 18.991ZM194.027 19.7227C207.573 19.9666 202.778 24.991 200.212 23.113C199.061 22.1374 196.952 20.8691 193.931 20.0398L194.027 19.7227Z" fill="#0C4B06"/>
<path d="M158.111 2.96663H174.894L176.524 0.893463C176.524 0.893463 178.418 2.28371 179.569 3.28371C179.497 3.552 179.258 3.67395 178.898 3.67395H158.303L158.111 2.96663ZM173.599 8.01541H173.36L174.726 6.47883L177.483 8.67395C177.316 8.86907 177.004 9.08858 176.524 9.18615V22.43C176.5 22.6252 175.086 23.2349 174.079 23.2349H173.599V8.01541ZM161.252 8.01541V6.74712L164.297 8.01541H174.918V8.69834H164.105V22.3569C164.105 22.6983 162.954 23.3813 161.707 23.3813H161.252V8.01541ZM162.595 20.5276H174.966V21.2349H162.595V20.5276ZM162.595 14.0154H174.966V14.6983H162.595V14.0154ZM166.766 2.96663H170.602C169.571 4.91785 168.109 7.18615 166.79 8.47883H166.263C166.455 7.13737 166.694 4.64956 166.766 2.96663Z" fill="#0C4B06"/>
<path d="M137.132 20.0642H143.342V20.7715H137.132V20.0642ZM133.8 4.16176H143.054L144.445 2.3081C144.445 2.3081 146.027 3.5764 146.962 4.47883C146.89 4.74713 146.651 4.86908 146.315 4.86908H133.992L133.8 4.16176ZM133.56 10.8935H143.15L144.565 8.99103C144.565 8.99103 146.195 10.2837 147.178 11.1862C147.106 11.4544 146.843 11.5764 146.507 11.5764H133.752L133.56 10.8935ZM138.547 0.649567L142.191 0.94225C142.143 1.28371 141.975 1.52762 141.328 1.62518V4.5764H138.547V0.649567ZM142.215 14.1862H141.975L143.222 12.7959L145.884 14.8447C145.74 15.0398 145.38 15.2349 144.901 15.3325V22.1862C144.877 22.3569 143.534 22.8691 142.647 22.8691H142.215V14.1862ZM136.149 5.3081C141.568 7.79591 138.859 12.0154 136.845 9.91786C136.893 8.40566 136.413 6.67396 135.886 5.40566L136.149 5.3081ZM141.952 5.08859L145.524 6.16176C145.428 6.45444 145.14 6.64957 144.613 6.62518C143.75 7.94225 142.335 9.8203 140.992 11.2349H140.657C141.136 9.47884 141.688 6.89347 141.952 5.08859ZM152.525 2.84469H152.237L153.724 1.35688L156.553 3.99103C156.361 4.23493 156.025 4.3081 155.45 4.33249C154.539 5.94225 152.932 8.64957 151.59 10.2593C154.611 11.9666 155.833 14.5032 155.833 16.6008C155.857 19.0642 154.802 20.5764 151.829 20.6496C151.829 19.8203 151.734 18.6496 151.494 18.2837C151.278 17.991 150.846 17.7715 150.223 17.6252V17.3081C150.751 17.3081 151.638 17.3081 152.021 17.3081C152.261 17.3081 152.381 17.2837 152.549 17.1862C152.932 16.9666 153.148 16.552 153.148 15.7471C153.148 13.9666 152.549 12.0154 150.99 10.3325C151.494 8.45445 152.261 4.8203 152.525 2.84469ZM135.526 14.1862V13.0642L138.259 14.1862H143.318V14.8935H138.139V22.5032C138.139 22.7715 137.037 23.3569 135.91 23.3569H135.526V14.1862ZM148.377 2.84469H153.556V3.52762H148.377V2.84469ZM147.25 2.84469V1.38127L150.295 2.84469H149.983V22.674C149.983 22.8935 149.12 23.552 147.73 23.552H147.25V2.84469Z" fill="#0C4B06"/>
<path d="M128.501 13.2349V13.9179H112.462V13.2349H128.501ZM127.47 6.01542L128.837 4.50322L131.69 6.69835C131.522 6.89347 131.21 7.11298 130.707 7.21054V15.2349C130.683 15.4301 129.197 15.9666 128.214 15.9666H127.71V6.01542H127.47ZM113.972 15.3569C113.972 15.6496 112.677 16.3325 111.455 16.3325H111.023V4.72274L114.212 6.01542H128.357V6.69835H113.972V15.3569ZM123.203 1.03981C123.155 1.38127 122.987 1.62518 122.339 1.72274V22.4544C122.339 22.7715 121.045 23.5276 119.894 23.5276H119.343V0.649567L123.203 1.03981Z" fill="#0C4B06"/>
</svg>
