<svg width="152" height="19" viewBox="0 0 152 19" fill="none" xmlns="http://www.w3.org/2000/svg">
<path fill-rule="evenodd" clip-rule="evenodd" d="M37.6508 15.1907C32.2372 15.1907 29.4858 12.9869 26.8778 10.8981C24.9994 9.39354 23.1954 7.94861 20.5246 7.4298C20.3282 7.40159 20.1279 7.37656 19.9234 7.35492C21.3304 7.99566 22.3103 9.42878 22.3103 11.0939C22.3103 13.3565 20.5011 15.1907 18.2694 15.1907C16.0377 15.1907 14.2286 13.3565 14.2286 11.0939C14.2286 9.38142 15.265 7.91434 16.7365 7.30219C13.3603 7.54221 11.3485 8.71834 9.31005 9.91001C6.95615 11.2861 4.56678 12.6829 0 12.6829C3.17971 12.3413 5.16995 10.7472 7.25161 9.0799C9.85954 6.99108 12.611 4.78733 18.0245 4.78733C23.6147 4.78733 27.1213 7.39099 30.1071 9.60802C32.01 11.0209 33.7014 12.2768 35.5858 12.6016C35.8367 12.6319 36.0954 12.6568 36.3627 12.6758C34.8912 12.0636 33.8548 10.5966 33.8548 8.88411C33.8548 6.62152 35.664 4.78732 37.8957 4.78732C40.1273 4.78732 41.9365 6.62152 41.9365 8.88411C41.9365 10.5492 40.9567 11.9823 39.5497 12.6231C42.7252 12.2871 44.8803 11.1321 47.0244 9.98288C49.5394 8.63489 52.0392 7.29505 56.1529 7.29505C53.8746 7.29505 51.9471 8.72625 49.7334 10.37C46.7475 12.587 43.2409 15.1907 37.6508 15.1907Z" fill="#06224B"/>
<path d="M139.131 11.7757V10.8786L141.397 11.7757H147.898L148.909 10.5923L150.839 12.1193C150.707 12.272 150.539 12.3866 150.127 12.4629V17.9221C150.127 18.0175 149.452 18.3993 148.328 18.3993H147.972V12.3102H141.191V18.0175C141.191 18.1702 140.554 18.5329 139.505 18.5329H139.131V11.7757ZM140.124 16.4714H149.284V17.0059H140.124V16.4714ZM143.289 4.675L146.174 4.92314C146.137 5.20946 145.987 5.38126 145.481 5.4767V12.1002H143.289V4.675ZM144.338 7.8627H148.347L149.546 6.20204C149.546 6.20204 150.914 7.32824 151.719 8.09176C151.663 8.30172 151.475 8.39717 151.194 8.39717H144.338V7.8627ZM142.671 0.609253L145.481 0.83831C145.462 1.10554 145.312 1.29642 144.807 1.39186V3.79695H142.671V0.609253ZM137.164 3.62516H148.497L149.733 1.88815C149.733 1.88815 151.157 3.05252 152 3.85422C151.944 4.06418 151.738 4.15962 151.475 4.15962H137.164V3.62516ZM136.208 3.62516V3.43428V2.72802L138.681 3.62516H138.344V8.39717C138.344 11.5849 138.119 15.7651 134.56 18.5138L134.373 18.342C136.077 15.4216 136.208 11.7376 136.208 8.39717V3.62516Z" fill="#06224B"/>
<path d="M120.492 0.552002L123.114 1.71637C123.039 1.90725 122.871 2.02178 122.44 1.9836C121.091 3.66335 118.581 5.51489 115.846 6.43111L115.678 6.22114C117.776 4.75137 119.649 2.36536 120.492 0.552002ZM123.957 0.723794L126.599 0.952851C126.561 1.201 126.393 1.37279 126.018 1.43005V4.78954C126.018 5.05677 126.093 5.13313 126.767 5.13313H128.884C129.633 5.13313 130.326 5.13313 130.626 5.11404C130.87 5.09495 131.057 5.05677 131.188 4.92316C131.375 4.71319 131.656 4.2169 131.937 3.51065H132.125L132.218 4.94225C132.818 5.15221 133.005 5.38127 133.005 5.74394C133.005 6.64108 132.162 6.88922 128.659 6.88922H126.393C124.407 6.88922 123.957 6.54564 123.957 5.15222V0.723794ZM130.233 1.04829L132.2 2.84256C131.994 3.01436 131.619 3.03344 131.094 2.84256C129.54 3.2625 127.067 3.7397 124.931 3.91149L124.857 3.64426C126.73 2.99527 129.053 1.8309 130.233 1.04829ZM119.462 3.77788L120.098 2.95709L122.122 3.70153C122.047 3.87332 121.859 4.00693 121.541 4.0642V6.7747C121.503 6.90831 120.66 7.29007 119.836 7.29007H119.462V3.77788ZM120.061 9.84787H129.633V10.3823H120.061V9.84787ZM120.061 12.0621H129.633V12.5965H120.061V12.0621ZM120.061 14.2954H129.633V14.8298H120.061V14.2954ZM128.153 7.69092H127.985L128.978 6.58382L131.038 8.18721C130.926 8.32083 130.701 8.47353 130.364 8.54988V14.9825C130.345 15.1352 129.259 15.5552 128.528 15.5552H128.153V7.69092ZM119.068 7.69092V6.73652L121.372 7.69092H129.69V8.22539H121.222V15.288C121.222 15.517 120.286 16.0133 119.387 16.0133H119.068V7.69092ZM122.478 14.9825L124.707 16.7577C124.538 16.9486 124.201 17.0059 123.62 16.8341C121.784 17.674 118.862 18.3611 115.996 18.5329L115.921 18.2657C118.45 17.5594 121.166 16.166 122.478 14.9825ZM125.456 15.5552C136.04 15.7461 132.293 19.6782 130.289 18.2084C129.39 17.4449 127.741 16.4523 125.381 15.8033L125.456 15.5552Z" fill="#06224B"/>
<path d="M97.3947 2.44173H110.507L111.781 0.819244C111.781 0.819244 113.261 1.90726 114.16 2.68987C114.104 2.89984 113.917 2.99528 113.636 2.99528H97.5445L97.3947 2.44173ZM109.496 6.39295H109.309L110.376 5.1904L112.531 6.90832C112.399 7.06103 112.156 7.23282 111.781 7.30917V17.674C111.763 17.8267 110.657 18.3039 109.871 18.3039H109.496V6.39295ZM99.8486 6.39295V5.40037L102.228 6.39295H110.526V6.92741H102.078V17.6167C102.078 17.8839 101.179 18.4184 100.205 18.4184H99.8486V6.39295ZM100.898 16.1851H110.564V16.7386H100.898V16.1851ZM100.898 11.0886H110.564V11.6231H100.898V11.0886ZM104.157 2.44173H107.154C106.349 3.96877 105.206 5.74395 104.176 6.75562H103.764C103.914 5.70578 104.101 3.7588 104.157 2.44173Z" fill="#06224B"/>
<path d="M81.0037 15.8224H85.8554V16.376H81.0037V15.8224ZM78.3999 3.37703H85.6306L86.7171 1.92634C86.7171 1.92634 87.9534 2.91892 88.684 3.62518C88.6278 3.83514 88.4405 3.93058 88.1782 3.93058H78.5497L78.3999 3.37703ZM78.2125 8.64532H85.7055L86.8108 7.15646C86.8108 7.15646 88.0846 8.16812 88.8526 8.87438C88.7964 9.08435 88.5903 9.17979 88.3281 9.17979H78.3624L78.2125 8.64532ZM82.1089 0.628357L84.9562 0.857414C84.9188 1.12465 84.7876 1.31553 84.2819 1.39188V3.70153H82.1089V0.628357ZM84.975 11.2222H84.7876L85.7617 10.1342L87.841 11.7376C87.7287 11.8903 87.4477 12.043 87.073 12.1193V17.4831C87.0543 17.6167 86.0053 18.0175 85.3122 18.0175H84.975V11.2222ZM80.2356 4.27417C84.4692 6.22115 82.3524 9.52337 80.7789 7.8818C80.8163 6.69835 80.4417 5.3431 80.0296 4.35052L80.2356 4.27417ZM84.7689 4.10238L87.5601 4.94225C87.4851 5.17131 87.2603 5.32401 86.8482 5.30492C86.1739 6.33567 85.0686 7.80545 84.0196 8.91256H83.7574C84.132 7.53822 84.5629 5.51489 84.7689 4.10238ZM93.03 2.34628H92.8052L93.9666 1.18191L96.177 3.24342C96.0272 3.4343 95.7649 3.49156 95.3153 3.51065C94.6035 4.77046 93.3484 6.88923 92.2994 8.14904C94.6597 9.4852 95.615 11.4704 95.615 13.1119C95.6338 15.0398 94.8095 16.2233 92.4867 16.2805C92.4867 15.6315 92.4118 14.7153 92.2245 14.429C92.0559 14.1999 91.7187 14.0281 91.2316 13.9136V13.6655C91.6438 13.6655 92.3369 13.6655 92.6366 13.6655C92.8239 13.6655 92.9176 13.6464 93.0487 13.57C93.3484 13.3982 93.517 13.0737 93.517 12.4438C93.517 11.0504 93.0487 9.52337 91.8311 8.2063C92.2245 6.73652 92.8239 3.89241 93.03 2.34628ZM79.7486 11.2222V10.3442L81.8841 11.2222H85.8367V11.7758H81.7904V17.7312C81.7904 17.9412 80.9287 18.3993 80.0483 18.3993H79.7486V11.2222ZM89.7892 2.34628H93.8355V2.88074H89.7892V2.34628ZM88.9088 2.34628V1.201L91.2878 2.34628H91.0443V17.8648C91.0443 18.0366 90.3699 18.552 89.2835 18.552H88.9088V2.34628Z" fill="#06224B"/>
<path d="M74.26 10.4778V11.0122H61.728V10.4778H74.26ZM73.4545 4.82772L74.5223 3.64426L76.7514 5.36219C76.6203 5.51489 76.3768 5.68668 75.9834 5.76303V12.043C75.9647 12.1957 74.8033 12.6156 74.0352 12.6156H73.6418V4.82772H73.4545ZM62.9081 12.1384C62.9081 12.3675 61.8965 12.902 60.9412 12.902H60.604V3.81606L63.0954 4.82772H74.1476V5.36219H62.9081V12.1384ZM70.1201 0.933766C70.0827 1.201 69.9515 1.39188 69.4458 1.46823V17.693C69.4458 17.9412 68.4342 18.5329 67.535 18.5329H67.1042V0.628357L70.1201 0.933766Z" fill="#06224B"/>
</svg>
